<?xml version="1.0" encoding="UTF-8"?>
<!-- Created with Inkscape (http://www.inkscape.org/) -->
<svg width="146mm" height="100mm" version="1.1" viewBox="0 0 146 100" xmlns="http://www.w3.org/2000/svg">
 <g transform="matrix(.035278 0 0 -.035278 -20.26 182)" fill="#fff">
  <path d="m1157.4 3541.3c107.4-18.85 196-79.15 263.85-180.91 73.52 101.76 113.09 250.65 113.09 442.87 0 382.61-162.08 597.46-412.77 597.46-250.65 0-412.74-214.85-412.74-597.46 0-382.58 162.08-597.44 412.74-597.44 81.05 0 154.56 22.61 214.86 67.86-58.44 99.9-101.79 133.81-179.03 145.11zm550.3-531.47c-118.73 0-246.87 43.33-318.5 171.5-75.38-50.88-165.84-77.26-267.63-77.26-341.11 0-537.13 297.75-537.13 699.19 0 401.46 196.02 699.22 537.13 699.22 341.12 0 537.14-297.76 537.14-699.22 0-229.91-64.07-425.93-184.69-550.3 58.4-101.79 114.95-130.06 233.68-130.06v-113.07"/>
  <path d="m1939.4 3122.9v1360.8h218.63l375.03-1153.4h3.78l376.95 1153.4h218.63v-1360.8h-124.42v1259h-3.73l-409-1259h-118.73l-408.99 1259h-3.78v-1259h-124.37"/>
  <path d="m3472.2 4435.6v-92.42c0-76 31.62-108.21 89.41-108.21 57.73 0 89.36 32.21 89.36 108.21v92.42zm-227.38 40.14h438.96v-132.56c0-104.57-48.65-148.34-122.17-148.34-73.57 0-122.23 43.77-122.23 148.34v92.42h-194.56v40.14"/>
  <path d="m3683.8 4104.3v-40.13h-406.14v-195.79h-32.82v235.92h438.96"/>
  <path d="m3854.3 3426v-299.14c0-83.95 40.74-113.09 118.56-113.09 77.83 0 118.59 29.14 118.59 113.09v299.14h40.11v-295.47c0-99.73-52.28-149.57-158.7-149.57-106.41 0-158.7 49.84-158.7 149.57v295.47h40.14"/>
  <path d="m4091.5 3852.9v299.14c0 83.94-40.74 113.09-118.57 113.09-77.82 0-118.58-29.15-118.58-113.09v-299.14h-40.12v295.47c0 99.73 52.29 149.57 158.7 149.57 106.42 0 158.7-49.84 158.7-149.57v-295.47h-40.13"/>
  <path d="m4257.7 3523.1h299.14c83.94 0 113.09 40.73 113.09 118.57 0 77.82-29.15 118.58-113.09 118.58h-299.14v40.12h295.47c99.74 0 149.57-52.29 149.57-158.7 0-106.42-49.83-158.71-149.57-158.71l-295.47 0.01v40.13"/>
  <path d="m3683.8 3760.2h-299.14c-83.95 0-113.1-40.73-113.1-118.56s29.15-118.59 113.1-118.59h299.14v-40.11h-295.48c-99.73 0-149.56 52.29-149.56 158.7 0 106.39 49.83 158.69 149.56 158.69h295.48v-40.13"/>
  <path d="m3367.6 3365.6c-66.93-17.03-96.08-55.94-96.08-125.25 0-54.75 34.68-87.57 87.56-87.57 117.94 0 71.77 237.74 217.11 237.74 65.06 0 113.65-44.99 113.65-126.47 0-69.31-37.65-120.41-105.19-140.45l-10.31 34.66c48.65 15.77 82.7 49.86 82.7 105.79 0 51.08-29.21 86.33-80.85 86.33-29.82 0-51.13-8.5-81.52-89.36-46.23-123.45-76.61-148.37-139.82-148.37-74.81 0-116.13 62.62-116.13 133.77 0 83.89 37.04 131.93 117.31 156.26l11.57-37.08"/>
 </g>
</svg>
